<?xml version="1.0" standalone="no"?>
<!DOCTYPE svg PUBLIC "-//W3C//DTD SVG 20010904//EN"
 "http://www.w3.org/TR/2001/REC-SVG-20010904/DTD/svg10.dtd">
<svg version="1.0" xmlns="http://www.w3.org/2000/svg"
 width="512.000000pt" height="512.000000pt" viewBox="0 0 512.000000 512.000000"
 preserveAspectRatio="xMidYMid meet">

<g transform="translate(0.000000,512.000000) scale(0.100000,-0.100000)"
fill="#000000" stroke="none">
<path d="M171 5103 c-26 -9 -65 -36 -91 -62 -87 -87 -80 100 -80 -2050 0
-1266 4 -1918 10 -1943 19 -68 70 -130 134 -163 l60 -30 768 -3 768 -3 -85
-169 -85 -170 -173 0 c-159 0 -176 -2 -222 -24 -94 -43 -148 -129 -148 -231 1
-99 43 -171 132 -223 l46 -27 1355 0 1355 0 46 27 c89 52 131 124 132 223 0
102 -54 188 -148 231 -46 22 -63 24 -222 24 l-173 0 -85 170 -85 169 768 3
768 3 60 30 c64 33 115 95 134 163 6 25 10 677 10 1943 0 2150 7 1963 -80
2049 -87 88 156 80 -2484 79 -2100 0 -2346 -2 -2385 -16z m4591 -175 c10 -18
13 -289 15 -1343 3 -1231 2 -1318 -14 -1287 -9 18 -32 45 -51 60 -34 26 -40
27 -194 30 l-158 3 0 897 c0 624 -3 909 -11 937 -15 53 -73 110 -129 125 -29
8 -99 11 -196 9 -146 -4 -152 -5 -193 -32 -74 -49 -81 -76 -81 -339 l0 -228
-182 0 c-157 0 -189 -3 -223 -19 -46 -21 -79 -54 -94 -94 -7 -19 -11 -232 -11
-643 l0 -614 -255 0 -255 0 0 1045 c0 1156 4 1088 -66 1141 l-37 29 -301 3
c-195 2 -314 -1 -338 -7 -44 -14 -93 -67 -107 -118 -7 -23 -11 -172 -11 -380
l0 -343 -249 0 -249 0 -4 199 -3 199 -31 39 c-55 69 -72 73 -306 73 -220 0
-245 -4 -292 -48 -58 -55 -56 -16 -56 -961 l0 -869 -118 -4 c-111 -3 -121 -5
-154 -30 -57 -44 -68 -78 -68 -222 0 -84 5 -138 14 -159 17 -42 66 -83 114
-97 25 -7 709 -10 2097 -10 2191 1 2104 -1 2157 47 12 10 29 32 39 48 19 30
19 28 19 -197 l0 -228 -2305 0 -2305 0 2 1674 3 1674 24 26 c13 14 33 27 45
29 11 2 1030 5 2263 6 l2242 1 13 -22z m-2202 -573 l0 -85 -255 0 -255 0 0 85
0 85 255 0 255 0 0 -85z m1620 -1070 l0 -895 -125 0 -125 0 0 895 0 895 125 0
125 0 0 -895z m-2990 385 l0 -430 -167 2 -168 3 -3 415 c-1 228 0 421 3 427 3
10 47 13 170 13 l165 0 0 -430z m1370 340 l0 -80 -255 0 -255 0 0 80 0 80 255
0 255 0 0 -80z m0 -940 l0 -680 -255 0 -255 0 0 680 0 680 255 0 255 0 0 -680z
m1190 -85 l0 -255 -165 0 -165 0 0 255 0 255 165 0 165 0 0 -255z m-2560 0 l0
-85 -165 0 -165 0 0 85 0 85 165 0 165 0 0 -85z m0 -425 l0 -170 -170 0 -170
0 0 170 0 170 170 0 170 0 0 -170z m3590 -1321 c0 -66 -5 -140 -11 -165 l-11
-44 -2262 0 c-2512 0 -2295 -6 -2316 68 -5 20 -10 88 -10 150 l0 112 2305 0
2305 0 0 -121z m-1040 -925 c13 -33 13 -86 0 -119 l-10 -25 -1241 2 -1241 3
-24 28 c-38 44 -29 96 21 125 15 8 344 11 1253 12 l1232 0 10 -26z"/>
</g>
</svg>
